<?xml version="1.0" encoding="utf-8"?>
<!-- Generator: Adobe Illustrator 18.0.0, SVG Export Plug-In . SVG Version: 6.00 Build 0)  -->
<!DOCTYPE svg PUBLIC "-//W3C//DTD SVG 1.1//EN" "http://www.w3.org/Graphics/SVG/1.1/DTD/svg11.dtd">
<svg version="1.1" id="Layer_1" xmlns="http://www.w3.org/2000/svg" xmlns:xlink="http://www.w3.org/1999/xlink" x="0px" y="0px"
	 viewBox="0 0 150 100" enable-background="new 0 0 150 100" xml:space="preserve">
<g>
	<path fill="#231F20" d="M109.8,34.1c-1.3-0.9-3.1-1.6-5.2-1.6c-1.5,0-3.1,0.3-4.7,0.9c-1.6,0.6-3.3,1.7-4.7,3.1
		c-6.4,6.4-9,14.3-9,14.3c-1,1.7-2.1,3.3-3.2,4.7c-1.3,1.6-2.5,3-3.7,4c-1.2,1.1-2.3,1.8-3.3,2.2c-1,0.4-1.9,0.5-2.7,0.2
		c-1.1-0.4-1.6-1.4-1.4-2.9c0.2-1.5,0.8-3.5,2-5.8L91,18.7h-3.7L73.9,45.6c-1.3,2.6-2.4,4.9-3.5,7.1c-1.1,2.2-1.8,4.2-2.1,5.9
		c-0.2,1-0.2,2,0,2.8c0.2,0.8,0.5,1.6,1,2.2c0.5,0.6,1,1.1,1.8,1.4c0.7,0.3,1.5,0.5,2.3,0.5c1.1,0,2.3-0.3,3.3-0.8
		c1.1-0.5,2.2-1.4,3.5-2.5c1.2-1.1,2.5-2.6,3.9-4.4c0.5-0.6,0.9-1.3,1.4-1.9c0,1.9,0.2,3.6,0.8,5c0.7,1.5,1.7,2.7,3,3.5
		c1.3,0.8,2.8,1.4,4.6,1.4c3.5,0,7.4-1.3,10.3-4.2c3-3.1,5.4-6.2,7.6-11.9c0.9-2.3,1.3-4.5,1.5-6.6c0.2-2,0-3.8-0.6-5.3
		C112.1,36.2,111.1,35,109.8,34.1z M109.7,43.1c-0.2,1.7-0.8,3.7-1.8,6c-2.1,5-4.4,8.6-6.9,10.8c-2.5,2.3-5,3.4-7.5,3.4
		c-1.1,0-2.1-0.4-2.9-1.1c-0.8-0.7-1.3-1.8-1.6-3.1c-0.3-1.3-0.3-2.9,0-4.7c0.3-1.8,1-3.8,2.1-5.9c2-4.5,4.2-7.9,6.6-10.1
		c2.4-2.2,4.9-3.3,7.3-3.3c1.1,0,2,0.3,2.8,0.9c0.8,0.6,1.3,1.5,1.6,2.7C109.9,39.9,110,41.4,109.7,43.1z M76.8,22.6
		c-0.2,1.8-0.8,3.8-1.6,6c-0.8,1.8-1.6,3.4-2.6,4.5c-1,1.2-1.9,2-2.9,2.6c-1,0.5-1.8,0.8-2.7,0.8c-0.8,0-1.5-0.3-2-0.9
		c1.4-0.8,2.6-1.9,3.7-3.5c1.1-1.6,2.1-3.3,2.9-5.3c1.3-3.2,1.8-5.7,1.5-7.5c-0.3-1.9-1.2-3.1-2.8-3.6c-1.6-0.5-3.5-0.4-5.7,0.4
		c-2.2,0.8-4.6,2.2-7,4.2c-2.4,2-4.9,4.5-7.3,7.6c-2.4,3.1-4.5,6.7-6.4,10.9c-1.6,3.8-2.6,7.2-3.1,10.1c-0.5,2.9-0.6,5.4-0.2,7.4
		c0.4,2,1.2,3.6,2.5,4.6c1.2,1.1,2.8,1.7,4.7,1.8c1.6,0.1,3.2-0.2,4.8-1.1c1.6-0.8,3-2,4.3-3.4l0.3-0.6l0,0l0,0l6.4-13.2
		c0.5-0.1,1.3-0.3,2.1-0.5c0.9-0.2,1.6-0.5,2.3-0.7L52.9,74.7h-3.8l4.9-10l0,0l0.9-1.8c-1,0.7-2,1.3-2.9,1.6
		c-1.5,0.6-2.9,0.9-4.3,0.9c-2.6,0-4.8-0.7-6.5-2c-1.7-1.3-3-3.1-3.7-5.5c-0.7-2.3-0.9-5.2-0.4-8.4c0.4-3.3,1.4-6.9,3.1-10.9
		c1.8-4.4,4.1-8.3,6.6-11.8c2.6-3.5,5.2-6.3,8.1-8.6c2.8-2.3,5.7-3.8,8.6-4.7c2.9-0.9,5.8-1,8.5-0.3c1.1,0.3,2.1,0.8,3,1.6
		c0.8,0.8,1.4,1.8,1.8,3.1C76.9,19.3,77,20.8,76.8,22.6z"/>
	<g>
		<g>
			<path fill="#231F20" d="M41.8,84.6v0.2c0,0.3,0,0.5,0,0.7c0,0.2-0.1,0.4-0.1,0.6c-0.1,0.2-0.2,0.4-0.3,0.5
				c-0.3,0.3-0.7,0.5-1.3,0.5h-1.7v-5H40c0.5,0,1,0.2,1.3,0.5c0.1,0.1,0.3,0.3,0.3,0.5c0.1,0.2,0.1,0.4,0.1,0.6c0,0.2,0,0.4,0,0.7
				V84.6z M41.1,84.6c0-0.3,0-0.5,0-0.7c0-0.2,0-0.3-0.1-0.4c0-0.1-0.1-0.2-0.2-0.3c-0.2-0.2-0.5-0.3-0.8-0.3h-0.9v3.6H40
				c0.4,0,0.6-0.1,0.8-0.3c0.1-0.1,0.2-0.3,0.2-0.5C41.1,85.3,41.1,85,41.1,84.6z"/>
			<path fill="#231F20" d="M47.5,87.1h-0.8l-0.3-1h-2l-0.3,1h-0.8l1.8-5h0.6L47.5,87.1z M46.1,85.5l-0.8-2.2l-0.8,2.2H46.1z"/>
			<path fill="#231F20" d="M52.8,87.1h-0.7l-2.3-3.5v3.5H49v-5h0.7l2.3,3.5v-3.5h0.8V87.1z"/>
			<path fill="#231F20" d="M58.3,85.6c0,0.2-0.1,0.5-0.2,0.7c-0.1,0.2-0.2,0.4-0.4,0.5c-0.2,0.1-0.3,0.2-0.5,0.3
				c-0.2,0.1-0.4,0.1-0.6,0.1c-0.2,0-0.3,0-0.5-0.1c-0.2,0-0.3-0.1-0.4-0.2c-0.1-0.1-0.3-0.2-0.4-0.3c-0.2-0.2-0.3-0.3-0.3-0.5
				c-0.1-0.2-0.1-0.4-0.1-0.6c0-0.2,0-0.5,0-0.9c0-0.3,0-0.5,0-0.7c0-0.2,0-0.3,0.1-0.5c0-0.1,0.1-0.3,0.1-0.4
				c0.1-0.1,0.2-0.3,0.3-0.4c0.2-0.2,0.4-0.3,0.6-0.4c0.2-0.1,0.5-0.1,0.7-0.1c0.5,0,0.9,0.1,1.2,0.4c0.3,0.3,0.5,0.6,0.6,1.1h-0.8
				c-0.1-0.3-0.2-0.5-0.3-0.6c-0.2-0.2-0.4-0.2-0.7-0.2c-0.1,0-0.3,0-0.4,0.1c-0.1,0.1-0.2,0.1-0.3,0.2c-0.1,0.1-0.1,0.1-0.2,0.2
				c0,0.1-0.1,0.2-0.1,0.3c0,0.1,0,0.3,0,0.4c0,0.2,0,0.4,0,0.6c0,0.3,0,0.5,0,0.6c0,0.2,0,0.3,0,0.4c0,0.1,0.1,0.2,0.1,0.3
				c0,0.1,0.1,0.1,0.2,0.2c0.1,0.1,0.2,0.2,0.3,0.2c0.1,0.1,0.3,0.1,0.4,0.1c0.2,0,0.3,0,0.5-0.1c0.1-0.1,0.3-0.2,0.3-0.3
				c0.1-0.1,0.2-0.3,0.2-0.4H58.3z"/>
			<path fill="#231F20" d="M60.9,87.1h-0.8v-5h0.8V87.1z"/>
			<path fill="#231F20" d="M66.8,87.1h-0.7l-2.3-3.5v3.5H63v-5h0.7l2.3,3.5v-3.5h0.8V87.1z"/>
			<path fill="#231F20" d="M72.3,85.2c0,0.3,0,0.6-0.1,0.8c-0.1,0.2-0.2,0.4-0.3,0.6c-0.4,0.4-0.8,0.6-1.4,0.6c-0.2,0-0.3,0-0.5-0.1
				c-0.2,0-0.3-0.1-0.4-0.2c-0.1-0.1-0.3-0.2-0.4-0.3c-0.2-0.2-0.3-0.3-0.3-0.5c-0.1-0.2-0.1-0.4-0.1-0.6c0-0.2,0-0.5,0-0.9
				c0-0.3,0-0.5,0-0.7c0-0.2,0-0.3,0.1-0.5c0-0.1,0.1-0.3,0.1-0.4c0.1-0.1,0.2-0.3,0.3-0.4c0.4-0.4,0.8-0.5,1.3-0.5
				c0.3,0,0.6,0.1,0.9,0.2c0.3,0.1,0.5,0.3,0.6,0.6c0.2,0.2,0.3,0.5,0.3,0.8h-0.8c0-0.2-0.1-0.3-0.2-0.5c-0.1-0.1-0.2-0.2-0.4-0.3
				c-0.1-0.1-0.3-0.1-0.5-0.1c-0.1,0-0.3,0-0.4,0.1c-0.1,0.1-0.2,0.1-0.3,0.2c-0.1,0.1-0.2,0.3-0.2,0.5c0,0.2-0.1,0.5-0.1,1
				c0,0.3,0,0.5,0,0.6c0,0.2,0,0.3,0,0.4c0,0.1,0.1,0.2,0.1,0.3c0,0.1,0.1,0.1,0.2,0.2c0.1,0.1,0.2,0.2,0.3,0.2
				c0.1,0.1,0.3,0.1,0.4,0.1c0.3,0,0.6-0.1,0.8-0.4c0.2-0.2,0.3-0.5,0.3-0.8V85h-1.1v-0.6h1.8V85.2z"/>
			<path fill="#231F20" d="M80.3,84.6v0.2c0,0.3,0,0.5,0,0.7c0,0.2-0.1,0.4-0.1,0.6c-0.1,0.2-0.2,0.4-0.3,0.5
				c-0.3,0.3-0.7,0.5-1.3,0.5h-1.7v-5h1.7c0.5,0,1,0.2,1.3,0.5c0.1,0.1,0.3,0.3,0.3,0.5c0.1,0.2,0.1,0.4,0.1,0.6c0,0.2,0,0.4,0,0.7
				V84.6z M79.6,84.6c0-0.3,0-0.5,0-0.7c0-0.2,0-0.3-0.1-0.4c0-0.1-0.1-0.2-0.2-0.3c-0.2-0.2-0.5-0.3-0.8-0.3h-0.9v3.6h0.9
				c0.4,0,0.6-0.1,0.8-0.3c0.1-0.1,0.2-0.3,0.2-0.5C79.6,85.3,79.6,85,79.6,84.6z"/>
			<path fill="#231F20" d="M83.1,87.1h-0.8v-5h0.8V87.1z"/>
			<path fill="#231F20" d="M88.9,87.1H88l-0.3-1h-2l-0.3,1h-0.8l1.8-5H87L88.9,87.1z M87.5,85.5l-0.8-2.2L86,85.5H87.5z"/>
			<path fill="#231F20" d="M94.8,87.1H94v-3.3l-1.1,2.4h-0.6l-1.2-2.4v3.3h-0.8v-5h0.8l1.5,3.1l1.4-3.1h0.8V87.1z"/>
			<path fill="#231F20" d="M100.3,84.6c0,0.4,0,0.7,0,0.9c0,0.2-0.1,0.4-0.1,0.6c-0.1,0.2-0.2,0.4-0.3,0.5c-0.4,0.4-0.8,0.5-1.3,0.5
				c-0.5,0-1-0.2-1.3-0.5c-0.2-0.2-0.3-0.3-0.3-0.5c-0.1-0.2-0.1-0.4-0.1-0.6c0-0.2,0-0.5,0-0.9c0-0.3,0-0.5,0-0.7
				c0-0.2,0-0.3,0.1-0.5c0-0.1,0.1-0.3,0.1-0.4c0.1-0.1,0.2-0.3,0.3-0.4c0.4-0.4,0.8-0.5,1.3-0.5c0.5,0,1,0.2,1.3,0.5
				c0.2,0.2,0.3,0.3,0.3,0.5c0.1,0.2,0.1,0.4,0.1,0.6C100.3,83.9,100.3,84.2,100.3,84.6z M99.6,84.6c0-0.5,0-0.8-0.1-1
				c0-0.2-0.1-0.4-0.2-0.5c-0.1-0.1-0.2-0.2-0.3-0.2c-0.1-0.1-0.3-0.1-0.4-0.1c-0.1,0-0.3,0-0.4,0.1c-0.1,0.1-0.2,0.1-0.3,0.2
				c-0.1,0.1-0.2,0.3-0.2,0.5c0,0.2-0.1,0.5-0.1,1c0,0.3,0,0.5,0,0.6c0,0.2,0,0.3,0,0.4c0,0.1,0.1,0.2,0.1,0.3
				c0,0.1,0.1,0.1,0.2,0.2c0.1,0.1,0.2,0.2,0.3,0.2c0.1,0.1,0.3,0.1,0.4,0.1c0.3,0,0.5-0.1,0.7-0.3c0.1-0.1,0.1-0.2,0.2-0.3
				c0-0.1,0.1-0.3,0.1-0.5C99.6,85.2,99.6,84.9,99.6,84.6z"/>
			<path fill="#231F20" d="M106,87.1h-0.7l-2.3-3.5v3.5h-0.8v-5h0.7l2.3,3.5v-3.5h0.8V87.1z"/>
			<path fill="#231F20" d="M111.7,84.6v0.2c0,0.3,0,0.5,0,0.7c0,0.2-0.1,0.4-0.1,0.6c-0.1,0.2-0.2,0.4-0.3,0.5
				c-0.3,0.3-0.7,0.5-1.3,0.5h-1.7v-5h1.7c0.5,0,1,0.2,1.3,0.5c0.1,0.1,0.3,0.3,0.3,0.5c0.1,0.2,0.1,0.4,0.1,0.6c0,0.2,0,0.4,0,0.7
				V84.6z M110.9,84.6c0-0.3,0-0.5,0-0.7c0-0.2,0-0.3-0.1-0.4c0-0.1-0.1-0.2-0.2-0.3c-0.2-0.2-0.5-0.3-0.8-0.3h-0.9v3.6h0.9
				c0.4,0,0.6-0.1,0.8-0.3c0.1-0.1,0.2-0.3,0.2-0.5C110.9,85.3,110.9,85,110.9,84.6z"/>
		</g>
	</g>
</g>
<g>
</g>
<g>
</g>
<g>
</g>
<g>
</g>
<g>
</g>
<g>
</g>
</svg>
