<?xml version="1.0" encoding="utf-8"?>
<!-- Generator: Adobe Illustrator 18.0.0, SVG Export Plug-In . SVG Version: 6.00 Build 0)  -->
<!DOCTYPE svg PUBLIC "-//W3C//DTD SVG 1.1//EN" "http://www.w3.org/Graphics/SVG/1.1/DTD/svg11.dtd">
<svg version="1.1" id="Layer_1" xmlns="http://www.w3.org/2000/svg" xmlns:xlink="http://www.w3.org/1999/xlink" x="0px" y="0px"
	 viewBox="0 0 150 100" enable-background="new 0 0 150 100" xml:space="preserve">
<g>
	<g>
		<rect x="16.3" y="65.6" fill="#231F20" width="58.3" height="0.5"/>
	</g>
	<g>
		<rect x="90.4" y="65.6" fill="#231F20" width="43.2" height="0.5"/>
	</g>
	<path fill="#231F20" d="M16.3,78.7v-0.2H17v-6.1h-0.7v-0.2H19c2.1,0,3.3,1.3,3.3,3.2c0,1.9-1.4,3.3-3.3,3.3H16.3z M18.8,78.5
		c1.4,0,2.2-1.3,2.2-3c0-1.7-0.8-3.1-2.2-3.1h-0.7v6.1H18.8z M22.9,78.7v-0.2h0.6v-3.9h-0.6v-0.2h1.6v4.1h0.6v0.2H22.9z M24,73
		c-0.3,0-0.6-0.2-0.6-0.6c0-0.3,0.3-0.6,0.6-0.6c0.3,0,0.6,0.2,0.6,0.6C24.6,72.8,24.3,73,24,73z M29.8,78c0,0.3-0.2,0.8-0.8,0.8
		c-0.5,0-0.8-0.2-0.9-0.7c-0.2,0.3-0.6,0.7-1.3,0.7c-0.6,0-1.2-0.4-1.2-1.1c0-1.6,2.5-0.8,2.5-2.4c0-0.5-0.3-0.8-1-0.8
		c-0.5,0-0.8,0.2-0.8,0.4c0,0,0,0.1,0.1,0.1c0.3,0,0.5,0.2,0.5,0.5c0,0.3-0.2,0.5-0.6,0.5c-0.3,0-0.6-0.2-0.6-0.6
		c0-0.5,0.6-1.2,1.6-1.2c1.1,0,1.7,0.6,1.7,1.5V78c0,0.2,0.1,0.4,0.3,0.4c0.2,0,0.3-0.2,0.3-0.4H29.8z M28.1,76.1
		c-0.5,0.5-1.5,0.6-1.5,1.5c0,0.4,0.3,0.7,0.7,0.7c0.5,0,0.8-0.3,0.8-0.7V76.1z M35,78.7v-0.2h0.5v-3.1c0-0.5-0.2-0.7-0.6-0.7
		c-0.5,0-0.8,0.4-0.8,0.9v2.9h0.5v0.2h-2v-0.2h0.5v-3.1c0-0.5-0.2-0.7-0.6-0.7c-0.5,0-0.8,0.4-0.8,0.9v2.9h0.5v0.2h-2v-0.2h0.6v-3.9
		h-0.6v-0.2h1.5V75c0.2-0.3,0.6-0.6,1.2-0.6c0.6,0,1,0.3,1.1,0.7c0.2-0.4,0.6-0.7,1.3-0.7c0.9,0,1.2,0.6,1.2,1.6v2.5h0.6v0.2H35z
		 M39.6,78.8c-1.2,0-2.1-1-2.1-2.2c0-1.2,1-2.2,2.1-2.2c1.2,0,2.1,0.9,2.1,2.2C41.7,77.8,40.8,78.8,39.6,78.8z M40.7,76.6
		c0-1.2-0.4-2-1.1-2c-0.8,0-1.1,0.8-1.1,2c0,1.2,0.3,2,1.1,2C40.4,78.6,40.7,77.7,40.7,76.6z M45.1,78.7v-0.2h0.5v-3.1
		c0-0.5-0.3-0.7-0.7-0.7c-0.5,0-0.9,0.5-0.9,1v2.8h0.5v0.2h-2.1v-0.2h0.6v-3.9h-0.6v-0.2H44V75c0.2-0.3,0.6-0.7,1.2-0.7
		c0.9,0,1.3,0.6,1.3,1.6v2.5h0.6v0.2H45.1z M52.4,78c0,0.3-0.2,0.8-0.8,0.8c-0.4,0-0.7-0.2-0.8-0.6c-0.2,0.3-0.6,0.6-1.2,0.6
		c-1.1,0-1.9-0.9-1.9-2.2c0-1.2,0.8-2.3,1.9-2.3c0.5,0,0.9,0.2,1.1,0.5v-2.7h-0.6v-0.2h1.6v6c0,0.2,0.1,0.4,0.3,0.4
		c0.2,0,0.3-0.2,0.3-0.4H52.4z M50.7,75.5c0-0.6-0.4-0.9-0.8-0.9c-0.8,0-1.2,0.8-1.2,1.9c0,1.1,0.4,1.9,1.1,1.9
		c0.5,0,0.9-0.3,0.9-0.9V75.5z M52.9,77.6c0-0.3,0.2-0.6,0.5-0.6c0.3,0,0.6,0.2,0.6,0.5c0,0.3-0.2,0.5-0.5,0.5c0,0-0.1,0-0.1,0.1
		c0,0.2,0.3,0.5,1.1,0.5c0.7,0,1-0.3,1-0.8c0-1.1-2.4-0.7-2.4-2.2c0-0.7,0.6-1.3,1.6-1.3c0.6,0,0.9,0.2,1.2,0.2
		c0.1,0,0.2-0.1,0.2-0.2h0.2v1.4h-0.2c-0.1-0.8-0.5-1.3-1.3-1.3c-0.6,0-0.9,0.3-0.9,0.7c0,1.2,2.5,0.7,2.5,2.2
		c0,0.8-0.8,1.3-1.8,1.3C53.4,78.8,52.9,78.2,52.9,77.6z M59.3,78.7v-0.2h0.6v-3.9h-0.6v-0.2h0.6v-1c0-1,0.5-1.6,1.3-1.6
		c0.7,0,1,0.4,1,0.9c0,0.4-0.2,0.6-0.6,0.6s-0.5-0.2-0.5-0.5c0-0.3,0.3-0.5,0.6-0.5c0,0,0.1,0,0.1-0.1c0-0.1-0.2-0.3-0.6-0.3
		c-0.5,0-0.8,0.4-0.8,1.1c0,0.6,0.2,1.1,0.2,1.4h1.1v0.2h-1c0.1,0.3,0.2,0.7,0.2,1.3v2.6h0.6v0.2H59.3z M64.2,78.8
		c-1.2,0-2.1-1-2.1-2.2c0-1.2,1-2.2,2.1-2.2c1.2,0,2.1,0.9,2.1,2.2C66.4,77.8,65.4,78.8,64.2,78.8z M65.3,76.6c0-1.2-0.4-2-1.1-2
		c-0.8,0-1.1,0.8-1.1,2c0,1.2,0.4,2,1.1,2C65,78.6,65.3,77.7,65.3,76.6z M68.7,76.3v2.2h0.6v0.2h-2.2v-0.2h0.6v-3.9h-0.6v-0.2h1.6v1
		c0.1-0.4,0.6-1,1.3-1c0.7,0,0.9,0.4,0.9,0.9c0,0.4-0.2,0.6-0.6,0.6c-0.3,0-0.5-0.2-0.5-0.5c0-0.3,0.2-0.5,0.6-0.5
		c0.1,0,0.1,0,0.1-0.1c0-0.1-0.1-0.3-0.5-0.3C69.3,74.6,68.7,75.3,68.7,76.3z M77.9,78c0,0.3-0.2,0.8-0.8,0.8
		c-0.5,0-0.8-0.2-0.9-0.7c-0.2,0.3-0.6,0.7-1.3,0.7c-0.6,0-1.2-0.4-1.2-1.1c0-1.6,2.5-0.8,2.5-2.4c0-0.5-0.3-0.8-1-0.8
		c-0.5,0-0.8,0.2-0.8,0.4c0,0,0,0.1,0.1,0.1c0.3,0,0.5,0.2,0.5,0.5c0,0.3-0.2,0.5-0.6,0.5c-0.3,0-0.6-0.2-0.6-0.6
		c0-0.5,0.6-1.2,1.6-1.2c1.1,0,1.7,0.6,1.7,1.5V78c0,0.2,0.1,0.4,0.3,0.4c0.2,0,0.3-0.2,0.3-0.4H77.9z M76.2,76.1
		c-0.5,0.5-1.5,0.6-1.5,1.5c0,0.4,0.3,0.7,0.7,0.7c0.5,0,0.8-0.3,0.8-0.7V76.1z M78,78.7v-0.2h0.6v-6.4H78v-0.2h1.6v6.6h0.6v0.2H78z
		 M80.6,78.7v-0.2h0.6v-6.4h-0.6v-0.2h1.6v6.6h0.6v0.2H80.6z M89.5,75.5c0,1.7-2.4,0.9-2.4,2.2c0,0.5,0.4,0.9,1,0.9
		c0.6,0,0.9-0.3,0.9-0.4c0,0,0-0.1-0.1-0.1c-0.3,0-0.4-0.2-0.4-0.5c0-0.3,0.2-0.5,0.5-0.5c0.3,0,0.6,0.2,0.6,0.5
		c0,0.6-0.6,1.1-1.6,1.1c-1.3,0-2.1-1-2.1-2.2c0-1.2,0.8-2.2,2.1-2.2C89,74.4,89.5,74.9,89.5,75.5z M86.8,76.5
		c0,0.3,0.1,0.6,0.1,0.9c0.3-0.9,1.7-0.6,1.7-1.9c0-0.6-0.2-1-0.7-1C87.1,74.5,86.8,75.4,86.8,76.5z M92.6,78.7v-0.2h0.6l-1.1-1.6
		l-0.6,0.8c-0.3,0.4-0.3,0.8,0.2,0.8h0.2v0.2H90v-0.2h0.2c0.4,0,0.7-0.4,1.1-0.8l0.7-0.9l-1.5-2.1h-0.5v-0.2h2.2v0.2h-0.6l1.1,1.5
		l0.6-0.8c0.3-0.4,0.3-0.8-0.2-0.8h-0.2v-0.2h1.9v0.2h-0.2c-0.4,0-0.7,0.4-1.1,0.8l-0.7,0.9l1.5,2.2h0.5v0.2H92.6z M95.2,80.4v-0.2
		h0.6v-5.6h-0.6v-0.2h1.6v0.4c0.2-0.2,0.6-0.5,1.1-0.5c1.1,0,1.9,0.9,1.9,2.1c0,1.3-0.8,2.2-1.9,2.2c-0.5,0-0.9-0.2-1.1-0.5v2h0.6
		v0.2H95.2z M96.7,77.5c0,0.6,0.3,0.9,0.8,0.9c0.8,0,1.2-0.8,1.2-1.9c0-1.1-0.4-1.9-1.1-1.9c-0.5,0-0.9,0.3-0.9,0.9V77.5z
		 M101.9,76.3v2.2h0.6v0.2h-2.2v-0.2h0.6v-3.9h-0.6v-0.2h1.6v1c0.1-0.4,0.6-1,1.3-1c0.7,0,0.9,0.4,0.9,0.9c0,0.4-0.2,0.6-0.6,0.6
		c-0.3,0-0.5-0.2-0.5-0.5c0-0.3,0.2-0.5,0.6-0.5c0.1,0,0.1,0,0.1-0.1c0-0.1-0.1-0.3-0.5-0.3C102.5,74.6,101.9,75.3,101.9,76.3z
		 M108.2,75.5c0,1.7-2.4,0.9-2.4,2.2c0,0.5,0.4,0.9,1,0.9c0.6,0,0.9-0.3,0.9-0.4c0,0,0-0.1-0.1-0.1c-0.2,0-0.4-0.2-0.4-0.5
		c0-0.3,0.2-0.5,0.5-0.5c0.3,0,0.6,0.2,0.6,0.5c0,0.6-0.6,1.1-1.6,1.1c-1.3,0-2.1-1-2.1-2.2c0-1.2,0.8-2.2,2.1-2.2
		C107.7,74.4,108.2,74.9,108.2,75.5z M105.5,76.5c0,0.3,0.1,0.6,0.1,0.9c0.3-0.9,1.7-0.6,1.7-1.9c0-0.6-0.2-1-0.7-1
		C105.8,74.5,105.5,75.4,105.5,76.5z M109.1,77.6c0-0.3,0.2-0.6,0.5-0.6c0.3,0,0.6,0.2,0.6,0.5c0,0.3-0.2,0.5-0.5,0.5
		c0,0-0.1,0-0.1,0.1c0,0.2,0.4,0.5,1.1,0.5c0.7,0,1-0.3,1-0.8c0-1.1-2.4-0.7-2.4-2.2c0-0.7,0.6-1.3,1.6-1.3c0.6,0,0.9,0.2,1.2,0.2
		c0.1,0,0.2-0.1,0.2-0.2h0.2v1.4h-0.2c-0.1-0.8-0.5-1.3-1.3-1.3c-0.6,0-0.9,0.3-0.9,0.7c0,1.2,2.5,0.7,2.5,2.2
		c0,0.8-0.8,1.3-1.8,1.3C109.5,78.8,109.1,78.2,109.1,77.6z M113.3,77.6c0-0.3,0.2-0.6,0.5-0.6c0.3,0,0.6,0.2,0.6,0.5
		c0,0.3-0.2,0.5-0.5,0.5c0,0-0.1,0-0.1,0.1c0,0.2,0.4,0.5,1.1,0.5c0.7,0,1-0.3,1-0.8c0-1.1-2.4-0.7-2.4-2.2c0-0.7,0.6-1.3,1.6-1.3
		c0.6,0,0.9,0.2,1.2,0.2c0.1,0,0.2-0.1,0.2-0.2h0.2v1.4h-0.2c-0.1-0.8-0.5-1.3-1.3-1.3c-0.6,0-0.9,0.3-0.9,0.7
		c0,1.2,2.5,0.7,2.5,2.2c0,0.8-0.8,1.3-1.8,1.3C113.8,78.8,113.3,78.2,113.3,77.6z M117.4,78.7v-0.2h0.6v-3.9h-0.6v-0.2h1.6v4.1h0.6
		v0.2H117.4z M118.5,73c-0.3,0-0.6-0.2-0.6-0.6c0-0.3,0.3-0.6,0.6-0.6c0.3,0,0.6,0.2,0.6,0.6C119.1,72.8,118.8,73,118.5,73z
		 M122.2,78.8c-1.2,0-2.1-1-2.1-2.2c0-1.2,1-2.2,2.1-2.2c1.2,0,2.1,0.9,2.1,2.2C124.3,77.8,123.3,78.8,122.2,78.8z M123.3,76.6
		c0-1.2-0.4-2-1.1-2c-0.8,0-1.1,0.8-1.1,2c0,1.2,0.4,2,1.1,2C122.9,78.6,123.3,77.7,123.3,76.6z M127.7,78.7v-0.2h0.5v-3.1
		c0-0.5-0.3-0.7-0.7-0.7c-0.5,0-0.9,0.5-0.9,1v2.8h0.5v0.2h-2v-0.2h0.6v-3.9H125v-0.2h1.6V75c0.2-0.3,0.6-0.7,1.2-0.7
		c0.9,0,1.3,0.6,1.3,1.6v2.5h0.6v0.2H127.7z M130.3,77.6c0-0.3,0.2-0.6,0.5-0.6c0.3,0,0.6,0.2,0.6,0.5c0,0.3-0.2,0.5-0.5,0.5
		c0,0-0.1,0-0.1,0.1c0,0.2,0.3,0.5,1.1,0.5c0.7,0,1-0.3,1-0.8c0-1.1-2.5-0.7-2.5-2.2c0-0.7,0.6-1.3,1.6-1.3c0.6,0,0.9,0.2,1.2,0.2
		c0.1,0,0.2-0.1,0.2-0.2h0.2v1.4h-0.2c-0.1-0.8-0.5-1.3-1.3-1.3c-0.6,0-0.9,0.3-0.9,0.7c0,1.2,2.5,0.7,2.5,2.2
		c0,0.8-0.8,1.3-1.8,1.3C130.8,78.8,130.3,78.2,130.3,77.6z"/>
	<g>
		<path fill="#231F20" d="M16.3,57.1h1.8c2.5,0,2.8-0.6,2.8-3.2V22.8c0-2.5-0.3-2.7-2.8-2.7h-1.8v-0.5h13.5V20h-1.8
			c-2.5,0-2.9,0.2-2.9,2.7v31c0,1.2-0.5,2.1-1.2,2.7v0.1H31c5.1,0,8.5-1,8.9-6.1l0.4-5.3h1.1l-1.1,15l-0.5-0.1l0.2-3.1h-0.1
			c-0.4,0.4-0.6,0.5-1.4,0.5H16.3V57.1z"/>
		<path fill="#231F20" d="M55.9,27c-5.2,0-8,3.1-8.2,7.2l-0.2,3.3l-1,0L47.2,25h0.5l-0.2,2.8c-0.1,0.7-0.1,1.3-0.2,1.7l0.4,0.1
			c0.1-0.2,0.5-1,0.8-1.2c1.6-1.2,4.1-2.3,7.3-2.3c8.1,0,13.6,3.8,13.6,9.6v18.2c0,2.1,0.2,2.7,1.7,2.7c0.3,0,1.1-0.1,1.1-0.1
			l0.9-0.1l0.1,0.5c-2.6,0.3-4.3,0.7-5.8,1.2v-0.4c0-1.3-0.3-3.1-0.6-4.8c-0.2-1.3-0.4-2.6-0.4-3.4h-0.5c-1.6,6.3-7.7,8.6-11.5,8.6
			c-6.6,0-11-3.4-11-8.4c0-5.8,4.4-9.7,11-9.7c4.3,0,7.8,2.7,7.8,6c0,1.3-1,2.4-2.3,2.4v-2.5c0-2.7-2.5-5-5.5-5
			c-4.1,0-6.8,3.4-6.8,8.6c0,4.3,3,7.1,7.4,7.1c5.7,0,10.3-4.9,10.3-10.9V34.9C65.3,30.2,61.5,27,55.9,27z"/>
		<path fill="#231F20" d="M88.4,60.4l0.9-2.6c0.2-0.4,0.3-0.8,0.3-1.4c0-0.5-0.1-1-0.3-1.6L77.5,30.2c-1.1-2.4-1.6-3.3-3.2-3.3h-0.8
			v-0.5h10.2v0.5H80V27c0.7,0.3,1.3,1.5,1.8,2.5l9.1,19.4c0.4,0.8,0.4,1.8,0.4,2.2h0.4l7.6-20.9c0.2-0.6,0.4-1.1,0.4-1.6
			c0-0.9-0.6-1.6-2.6-1.6h-2.4v-0.5h9.1v0.4h-0.3c-1.7,0-2.2,1-3.1,3.3L89.4,60.4c-1.7,4.3-4.4,6.5-7.1,6.5c-3.3,0-6-2.8-6-6.2
			c0-3.4,2.6-5.7,6.5-5.7h1.1c0,1.4-1,2.3-2.4,2.3c-2.5,0-4.2,1.4-4.2,3.4c0,2.2,2.3,4,5.2,4C86,64.7,87.6,62.8,88.4,60.4z"/>
		<path fill="#231F20" d="M116.3,27c-5.2,0-8,3.1-8.2,7.2l-0.2,3.3l-0.9,0l0.6-12.5h0.5l-0.2,2.8c-0.1,0.7-0.1,1.3-0.2,1.7l0.4,0.1
			c0.1-0.2,0.5-1,0.8-1.2c1.6-1.2,4.1-2.3,7.3-2.3c8.1,0,13.6,3.8,13.6,9.6v18.2c0,2.1,0.2,2.7,1.7,2.7c0.3,0,1.1-0.1,1.1-0.1
			l0.9-0.1l0.1,0.5c-2.6,0.3-4.3,0.7-5.8,1.2v-0.4c0-1.3-0.3-3.1-0.6-4.8c-0.2-1.3-0.4-2.6-0.4-3.4h-0.5c-1.6,6.3-7.7,8.6-11.5,8.6
			c-6.6,0-11-3.4-11-8.4c0-5.8,4.4-9.7,11-9.7c4.3,0,7.8,2.7,7.8,6c0,1.3-1,2.4-2.3,2.4v-2.5c0-2.7-2.5-5-5.5-5
			c-4.1,0-6.8,3.4-6.8,8.6c0,4.3,3,7.1,7.4,7.1c5.7,0,10.3-4.9,10.3-10.9V34.9C125.7,30.2,121.9,27,116.3,27z"/>
	</g>
</g>
<g>
</g>
<g>
</g>
<g>
</g>
<g>
</g>
<g>
</g>
<g>
</g>
</svg>
