<?xml version="1.0" encoding="utf-8"?>
<!-- Generator: Adobe Illustrator 18.0.0, SVG Export Plug-In . SVG Version: 6.00 Build 0)  -->
<!DOCTYPE svg PUBLIC "-//W3C//DTD SVG 1.1//EN" "http://www.w3.org/Graphics/SVG/1.1/DTD/svg11.dtd">
<svg version="1.1" id="Layer_1" xmlns="http://www.w3.org/2000/svg" xmlns:xlink="http://www.w3.org/1999/xlink" x="0px" y="0px"
	 viewBox="0 0 150 100" enable-background="new 0 0 150 100" xml:space="preserve">
<path fill="#231F20" d="M8.7,66.3h0.5v1.6h2v-1.6h0.5v4h-0.5v-1.9h-2v1.9H8.7V66.3z M12.9,66.3h2.9v0.5h-2.4V68h2.2v0.5h-2.2v1.3
	h2.4v0.5h-2.9V66.3z M16.9,66.3h1.8c0.3,0,0.5,0,0.7,0.1c0.4,0.2,0.5,0.5,0.5,0.9c0,0.2,0,0.4-0.1,0.6c-0.1,0.2-0.2,0.3-0.4,0.4
	c0.2,0.1,0.3,0.1,0.3,0.2c0.1,0.1,0.1,0.3,0.1,0.5l0,0.5c0,0.2,0,0.3,0,0.3c0,0.1,0.1,0.2,0.2,0.2v0.1h-0.7c0,0,0-0.1,0-0.1
	c0-0.1,0-0.2,0-0.3l0-0.7c0-0.3-0.1-0.4-0.3-0.5c-0.1,0-0.3-0.1-0.5-0.1h-1.2v1.7h-0.5V66.3z M18.6,68.1c0.2,0,0.4,0,0.6-0.2
	c0.1-0.1,0.2-0.3,0.2-0.5c0-0.3-0.1-0.5-0.3-0.6c-0.1-0.1-0.2-0.1-0.4-0.1h-1.3v1.4H18.6z M21.1,66.3h0.5v4h-0.5V66.3z M25.7,66.3
	v0.5h-1.3v3.5h-0.5v-3.5h-1.3v-0.5H25.7z M27.1,66.3h0.6l1.4,4h-0.6L28.2,69h-1.6l-0.4,1.2h-0.5L27.1,66.3z M28,68.6l-0.6-1.7
	l-0.6,1.7H28z M32.5,66.4c0.4,0.2,0.6,0.6,0.7,1.1h-0.5c-0.1-0.3-0.2-0.5-0.4-0.6c-0.2-0.1-0.4-0.2-0.8-0.2c-0.4,0-0.7,0.1-0.9,0.4
	c-0.2,0.3-0.4,0.7-0.4,1.2c0,0.5,0.1,0.9,0.3,1.1c0.2,0.3,0.5,0.4,1,0.4c0.4,0,0.6-0.1,0.9-0.3c0.2-0.2,0.3-0.5,0.4-1h-1.2v-0.4h1.7
	v2.1H33l-0.1-0.5c-0.2,0.2-0.3,0.3-0.5,0.4c-0.2,0.1-0.5,0.2-0.9,0.2c-0.5,0-0.9-0.2-1.2-0.5c-0.4-0.4-0.5-0.9-0.5-1.6
	c0-0.7,0.2-1.2,0.5-1.6c0.3-0.4,0.8-0.6,1.3-0.6C32,66.2,32.3,66.2,32.5,66.4z M34.5,66.3h2.9v0.5H35V68h2.2v0.5H35v1.3h2.4v0.5
	h-2.9V66.3z M42.1,69.1c0,0.3,0,0.6-0.1,0.8c-0.2,0.3-0.5,0.5-1,0.5c-0.3,0-0.6-0.1-0.8-0.2c-0.2-0.2-0.3-0.4-0.3-0.9V69h0.5v0.3
	c0,0.2,0,0.4,0.1,0.5c0.1,0.1,0.2,0.2,0.4,0.2c0.3,0,0.5-0.1,0.6-0.3c0.1-0.1,0.1-0.3,0.1-0.7v-2.6h0.5V69.1z M43.2,66.3h2.9v0.5
	h-2.4V68h2.2v0.5h-2.2v1.3h2.4v0.5h-2.9V66.3z M47.3,66.3l0.7,3.2l0.9-3.2h0.6l0.9,3.2l0.7-3.2h0.6l-1,4h-0.6L49.2,67l-0.9,3.3h-0.6
	l-1-4H47.3z M52.5,66.3h2.9v0.5h-2.4V68h2.2v0.5h-2.2v1.3h2.4v0.5h-2.9V66.3z M56.4,66.3h0.5v3.5h2v0.5h-2.5V66.3z M59.7,66.3h0.5
	v3.5h2v0.5h-2.5V66.3z M63.1,66.3H66v0.5h-2.4V68h2.2v0.5h-2.2v1.3H66v0.5h-2.9V66.3z M67,66.3h1.8c0.3,0,0.5,0,0.7,0.1
	c0.4,0.2,0.5,0.5,0.5,0.9c0,0.2,0,0.4-0.1,0.6c-0.1,0.2-0.2,0.3-0.4,0.4c0.2,0.1,0.3,0.1,0.3,0.2C70,68.6,70,68.8,70,69l0,0.5
	c0,0.2,0,0.3,0,0.3c0,0.1,0.1,0.2,0.2,0.2v0.1h-0.7c0,0,0-0.1,0-0.1c0-0.1,0-0.2,0-0.3l0-0.7c0-0.3-0.1-0.4-0.3-0.5
	c-0.1,0-0.3-0.1-0.5-0.1h-1.2v1.7H67V66.3z M68.8,68.1c0.2,0,0.4,0,0.6-0.2c0.1-0.1,0.2-0.3,0.2-0.5c0-0.3-0.1-0.5-0.3-0.6
	c-0.1-0.1-0.2-0.1-0.4-0.1h-1.3v1.4H68.8z M70.8,66.3h0.6l1.1,1.9l1.1-1.9h0.6l-1.5,2.4v1.6h-0.5v-1.6L70.8,66.3z M76.9,66.3
	l0.7,3.2l0.9-3.2h0.6l0.9,3.2l0.7-3.2h0.6l-1,4h-0.6L78.9,67l-0.9,3.3h-0.6l-1-4H76.9z M82.2,66.3h0.5v4h-0.5V66.3z M86.8,66.3v0.5
	h-1.3v3.5h-0.5v-3.5h-1.3v-0.5H86.8z M87.5,66.3H88v1.6h2v-1.6h0.5v4h-0.5v-1.9h-2v1.9h-0.5V66.3z M94.1,66.3v2.4
	c0,0.3,0.1,0.5,0.2,0.7c0.2,0.3,0.4,0.4,0.8,0.4c0.5,0,0.8-0.2,0.9-0.5c0.1-0.2,0.1-0.4,0.1-0.7v-2.4h0.5v2.2c0,0.5-0.1,0.9-0.2,1.1
	c-0.2,0.5-0.7,0.7-1.4,0.7c-0.7,0-1.1-0.2-1.4-0.7c-0.1-0.3-0.2-0.6-0.2-1.1v-2.2H94.1z M97.7,66.3h0.6l2,3.2v-3.2h0.5v4h-0.6
	l-2-3.2v3.2h-0.5V66.3z M104.7,66.6c0.3,0.3,0.4,0.6,0.5,0.9h-0.5c-0.1-0.3-0.2-0.5-0.3-0.6c-0.2-0.1-0.4-0.2-0.7-0.2
	c-0.4,0-0.7,0.1-0.9,0.4c-0.2,0.3-0.4,0.7-0.4,1.3c0,0.5,0.1,0.8,0.3,1.1c0.2,0.3,0.5,0.4,1,0.4c0.4,0,0.7-0.2,0.9-0.5
	c0.1-0.2,0.2-0.4,0.2-0.6h0.5c0,0.4-0.2,0.8-0.5,1c-0.3,0.3-0.7,0.5-1.3,0.5c-0.5,0-0.8-0.1-1.1-0.4c-0.4-0.4-0.6-0.9-0.6-1.7
	c0-0.6,0.2-1.1,0.5-1.4c0.3-0.4,0.8-0.6,1.4-0.6C104.1,66.2,104.5,66.3,104.7,66.6z M106.7,66.3v2.4c0,0.3,0.1,0.5,0.2,0.7
	c0.2,0.3,0.4,0.4,0.8,0.4c0.5,0,0.8-0.2,0.9-0.5c0.1-0.2,0.1-0.4,0.1-0.7v-2.4h0.5v2.2c0,0.5-0.1,0.9-0.2,1.1
	c-0.2,0.5-0.7,0.7-1.4,0.7c-0.7,0-1.1-0.2-1.4-0.7c-0.1-0.3-0.2-0.6-0.2-1.1v-2.2H106.7z M113.3,66.3v0.5h-1.3v3.5h-0.5v-3.5H110
	v-0.5H113.3z M115.7,66.3h1.6c0.5,0,1,0.2,1.2,0.6c0.3,0.3,0.4,0.8,0.4,1.3c0,0.4-0.1,0.8-0.2,1.1c-0.3,0.6-0.7,0.9-1.4,0.9h-1.6
	V66.3z M117.2,69.8c0.2,0,0.3,0,0.4-0.1c0.2-0.1,0.4-0.2,0.5-0.4c0.1-0.2,0.2-0.4,0.2-0.6c0-0.1,0-0.3,0-0.4c0-0.5-0.1-0.9-0.3-1.1
	c-0.2-0.3-0.5-0.4-0.9-0.4h-0.9v3H117.2z M120,66.3h0.5v4H120V66.3z M122.8,66.3h0.6l1.4,4h-0.6l-0.4-1.2h-1.6l-0.4,1.2h-0.5
	L122.8,66.3z M123.7,68.6l-0.6-1.7l-0.6,1.7H123.7z M125.6,66.3h0.8l1.1,3.3l1.1-3.3h0.8v4h-0.5v-2.3c0-0.1,0-0.2,0-0.4
	c0-0.2,0-0.4,0-0.6l-1.1,3.3h-0.5l-1.1-3.3V67c0,0.1,0,0.2,0,0.4c0,0.2,0,0.3,0,0.4v2.3h-0.5V66.3z M133.7,66.8
	c0.3,0.4,0.4,0.8,0.4,1.3c0,0.6-0.1,1.1-0.4,1.5c-0.4,0.5-0.9,0.7-1.5,0.7c-0.6,0-1.1-0.2-1.4-0.6c-0.3-0.4-0.5-0.9-0.5-1.5
	c0-0.5,0.1-1,0.4-1.4c0.3-0.5,0.8-0.7,1.5-0.7C132.8,66.2,133.3,66.4,133.7,66.8z M133.2,69.4c0.2-0.3,0.3-0.7,0.3-1.2
	c0-0.5-0.1-0.8-0.4-1.1c-0.2-0.3-0.6-0.4-1-0.4c-0.4,0-0.7,0.1-1,0.4c-0.3,0.3-0.4,0.7-0.4,1.2c0,0.4,0.1,0.8,0.3,1.1
	c0.2,0.3,0.6,0.5,1.1,0.5C132.6,69.9,133,69.7,133.2,69.4z M134.9,66.3h0.6l2,3.2v-3.2h0.5v4h-0.6l-2-3.2v3.2h-0.5V66.3z
	 M139.2,66.3h1.6c0.5,0,1,0.2,1.2,0.6c0.3,0.3,0.4,0.8,0.4,1.3c0,0.4-0.1,0.8-0.2,1.1c-0.3,0.6-0.7,0.9-1.4,0.9h-1.6V66.3z
	 M140.7,69.8c0.2,0,0.3,0,0.4-0.1c0.2-0.1,0.4-0.2,0.5-0.4c0.1-0.2,0.2-0.4,0.2-0.6c0-0.1,0-0.3,0-0.4c0-0.5-0.1-0.9-0.3-1.1
	c-0.2-0.3-0.5-0.4-0.9-0.4h-0.9v3H140.7z M143.7,69c0,0.2,0.1,0.4,0.2,0.5c0.2,0.3,0.5,0.4,0.9,0.4c0.2,0,0.4,0,0.5-0.1
	c0.3-0.1,0.5-0.3,0.5-0.6c0-0.2-0.1-0.4-0.2-0.5c-0.1-0.1-0.3-0.2-0.6-0.2l-0.5-0.1c-0.3-0.1-0.6-0.2-0.7-0.3
	c-0.2-0.2-0.4-0.4-0.4-0.7c0-0.4,0.1-0.6,0.4-0.9c0.2-0.2,0.6-0.3,1-0.3c0.4,0,0.7,0.1,1,0.3c0.3,0.2,0.4,0.5,0.4,1h-0.5
	c0-0.2-0.1-0.4-0.2-0.5c-0.2-0.2-0.4-0.3-0.8-0.3c-0.3,0-0.5,0.1-0.7,0.2c-0.1,0.1-0.2,0.3-0.2,0.5c0,0.2,0.1,0.3,0.2,0.4
	c0.1,0.1,0.3,0.1,0.7,0.2l0.5,0.1c0.3,0.1,0.5,0.1,0.6,0.3c0.2,0.2,0.4,0.5,0.4,0.8c0,0.4-0.2,0.8-0.5,0.9c-0.3,0.2-0.7,0.3-1.1,0.3
	c-0.5,0-0.9-0.1-1.1-0.4c-0.3-0.2-0.4-0.6-0.4-1H143.7z M7,41.3c0.1,0.3,0.3,0.5,0.3,0.6c0.1,0.2,0.2,0.3,0.2,0.3
	c0.2,0.2,0.3,0.4,0.5,0.7c0.2,0.2,0.4,0.5,0.7,0.7c0.3,0.2,0.6,0.4,1,0.5c0.4,0.2,0.9,0.2,1.4,0.3c0.7,0.1,1.4,0,2-0.3
	c0.6-0.2,1.2-0.5,1.6-0.9c0.2-0.2,0.5-0.4,0.8-0.7c0.3-0.3,0.5-0.6,0.6-1c0.2-0.3,0.3-0.7,0.3-1.1c0.1-0.4,0-0.8-0.2-1.3
	c-0.2-0.5-0.6-0.9-1.1-1.2c-0.5-0.3-1-0.3-1.5-0.1c-0.4,0.2-0.7,0.4-0.9,0.8c-0.2,0.4-0.2,0.8,0,1.2c0.1,0.3,0.3,0.4,0.5,0.5
	c0.2,0.1,0.4,0.1,0.8,0c0.1-0.1,0.2-0.1,0.3-0.2c0.1-0.1,0.1-0.2,0.1-0.4c0-0.1-0.1-0.1-0.1-0.1c0,0-0.1,0.1-0.1,0.1
	c-0.1,0-0.1,0.1-0.2,0.1c-0.1,0-0.2-0.1-0.4-0.2c-0.1-0.1-0.1-0.3-0.1-0.4c0-0.1,0.1-0.2,0.2-0.3c0.1-0.1,0.2-0.1,0.3-0.2
	c0.1-0.1,0.2-0.1,0.2-0.1c0.2-0.1,0.5,0,0.7,0.2c0.3,0.2,0.4,0.4,0.5,0.6c0.2,0.5,0.2,0.9-0.1,1.3c-0.3,0.4-0.6,0.7-1,0.9
	C14.1,42,13.5,42,13,41.7c-0.5-0.3-0.9-0.7-1.1-1.2L11.1,38l-2.2-5.6H3.4l3.1,7.5L7,41.3z M44,43.7c-0.5,0-0.8,0.2-1.2,0.5
	c-0.3,0.3-0.4,0.7-0.4,1.1c0.1,0.5,0.5,0.8,1.1,0.9c0.1,0,0.3,0,0.4-0.1c0.1-0.1,0.2-0.2,0.2-0.3c0-0.1,0-0.1-0.1-0.1
	c0,0-0.1,0-0.2,0c-0.1,0-0.2,0-0.3,0c-0.1,0-0.2-0.1-0.3-0.3c-0.1-0.2,0-0.3,0-0.4c0.1-0.1,0.2-0.2,0.3-0.2c0.1,0,0.2-0.1,0.4-0.1
	c0.1,0,0.2,0,0.3,0c0.3,0.1,0.5,0.2,0.7,0.4c0.2,0.2,0.3,0.5,0.3,0.7c0,0.5-0.1,0.8-0.5,1.2c-0.4,0.3-0.8,0.5-1.3,0.5
	c-0.6,0-1.1-0.2-1.5-0.6c-0.4-0.4-0.6-0.9-0.6-1.5v-3.8v-4.9h13v-4.5h-18v11.2c0,0.5,0,0.9,0.1,1.3c0.1,0.5,0.1,0.7,0.1,0.8
	c0.1,0.3,0.2,0.6,0.3,0.8c0.1,0.3,0.3,0.6,0.5,0.9c0.2,0.3,0.5,0.6,0.8,0.8c0.3,0.3,0.7,0.5,1.2,0.7c0.7,0.3,1.3,0.4,2,0.4
	c0.7,0,1.2-0.2,1.8-0.3c0.3-0.1,0.6-0.2,0.9-0.4c0.4-0.2,0.7-0.4,1-0.7c0.3-0.3,0.5-0.6,0.7-1c0.2-0.4,0.3-0.8,0.2-1.3
	c-0.1-0.5-0.3-0.9-0.7-1.4C44.9,43.8,44.4,43.6,44,43.7z M99.2,47c0.2-0.4,0.3-0.8,0.2-1.3c0-0.5-0.2-0.9-0.6-1.4
	c-0.4-0.5-0.8-0.7-1.4-0.7c-0.4,0-0.8,0.2-1.1,0.5c-0.3,0.3-0.4,0.7-0.4,1.1c0.1,0.5,0.4,0.8,1,0.9c0.1,0,0.3,0,0.4-0.1
	c0.1-0.1,0.2-0.2,0.2-0.3c0-0.1-0.1-0.2-0.3-0.1c-0.1,0.1-0.3,0-0.5-0.3c-0.1-0.2,0-0.3,0-0.4c0.1-0.1,0.2-0.2,0.3-0.2
	c0.1,0,0.2-0.1,0.4-0.1c0.1,0,0.2,0,0.2,0c0.3,0.1,0.5,0.2,0.7,0.4c0.2,0.2,0.3,0.5,0.3,0.7c0,0.5-0.1,0.8-0.5,1.2
	c-0.4,0.3-0.8,0.5-1.2,0.5c-0.6,0-1.1-0.2-1.5-0.6c-0.4-0.4-0.6-0.9-0.6-1.5l0-3.1v-10h-5v1.9v7.8v2.1c0,0.2,0.1,0.5,0.1,0.7
	c0.1,0.5,0.1,0.7,0.1,0.8c0.2,0.5,0.4,1.1,0.7,1.7c0.3,0.6,1,1.1,2,1.6c0.7,0.3,1.3,0.4,2,0.4c0.6,0,1.2-0.2,1.8-0.3
	c0.3-0.1,0.6-0.2,0.9-0.4c0.4-0.2,0.7-0.4,1-0.7C98.8,47.6,99,47.3,99.2,47z M131.9,29.6l-14.2,29.8c0,0,0,0,0,0l-0.5,1.3h0.6h8
	c0.7,0,1.2-0.2,1.7-0.6c0.5-0.4,0.7-1,0.7-1.7c0-0.5-0.2-1-0.5-1.4c-0.4-0.4-0.8-0.7-1.3-0.7c-0.5,0-0.9,0.1-1.2,0.4
	c-0.3,0.3-0.5,0.6-0.4,1.1c0.1,0.3,0.1,0.5,0.3,0.7c0.1,0.1,0.4,0.2,0.7,0.3c0.1,0,0.3,0,0.4-0.1c0.1-0.1,0.2-0.2,0.2-0.3
	c0-0.1-0.1-0.2-0.2-0.1c-0.2,0.1-0.3,0-0.5-0.3c-0.1-0.2,0-0.3,0-0.4c0.1-0.1,0.2-0.2,0.3-0.2c0.1,0,0.3,0,0.4,0c0.1,0,0.2,0,0.3,0
	c0.3,0.1,0.5,0.2,0.7,0.4c0.2,0.2,0.3,0.5,0.3,0.7c0,0.5-0.2,0.8-0.6,1.2c-0.4,0.3-0.8,0.5-1.3,0.5c-0.6,0-1.2-0.2-1.6-0.7
	c-0.4-0.5-0.6-1-0.5-1.6c0,0,1.9-3.9,1.9-3.9h12.8l3.2,6.8h5.3L131.9,29.6z M135.6,51.1c-1.5,0-2.9-0.4-3.7-2.1
	c-0.8,1.7-2.2,2.1-3.7,2.1c-1.7,0-2.7,0.5-2.7,0.5s0.9-0.8,1.7-2.6c0.8-1.6,1.6-2.8,3.1-2.8c-0.7-1.6-0.2-3.2,0.6-4.7
	c0.9-1.8,1-3.1,1-3.1s0.1,1.3,1,3.1c0.7,1.5,1.2,3.1,0.6,4.7c1.6,0.1,2.4,1.3,3.2,2.8c0.9,1.8,1.7,2.6,1.7,2.6
	C138.3,51.7,137.3,51.1,135.6,51.1z M84.7,40.9c-0.7-1.7-1.8-3.2-3.1-4.5c-1.3-1.2-2.9-2.2-4.8-3c-1.8-0.7-3.9-1.1-6.1-1.1H60.2v1.9
	c0,1,0,2.2,0,3.5c0,1.3,0,2.7,0,4.2c0,1.5,0,3,0,4.6c0,1.6,0,3.1,0,4.6c0,1.5,0,2.9,0,4.2c0,1.3,0,2.5,0,3.5v1.9H65h2.4
	c0.7,0,1.3-0.2,1.7-0.6c0.5-0.4,0.7-1,0.7-1.7c0-0.5-0.2-1-0.5-1.4c-0.3-0.4-0.8-0.7-1.3-0.7c-0.5,0-0.8,0.1-1.2,0.4
	c-0.3,0.3-0.5,0.6-0.4,1.1c0.1,0.3,0.2,0.5,0.3,0.7c0.1,0.1,0.4,0.2,0.7,0.3c0.1,0,0.3,0,0.4-0.1c0.1-0.1,0.2-0.2,0.2-0.3
	c0-0.1-0.1-0.2-0.2-0.1c-0.2,0.1-0.3,0-0.5-0.3c-0.1-0.2,0-0.3,0-0.4c0.1-0.1,0.2-0.2,0.3-0.2c0.1,0,0.2,0,0.4,0c0.1,0,0.2,0,0.3,0
	c0.3,0.1,0.5,0.2,0.6,0.4c0.2,0.2,0.3,0.5,0.3,0.7c0,0.5-0.2,0.8-0.6,1.1c-0.4,0.3-0.8,0.5-1.3,0.5c-0.6,0-1.2-0.2-1.6-0.7
	c-0.2-0.3-0.4-0.6-0.5-1c0-0.1,0-0.2-0.1-0.3c0-0.1,0-0.2,0-0.4V36.9h5.6c1.5,0,2.8,0.2,4.1,0.7c1.2,0.5,2.2,1.1,3.1,2
	c0.8,0.8,1.5,1.9,2,3c0.5,1.2,0.7,2.5,0.7,3.9v0.1c0,1.4-0.2,2.7-0.7,3.8c-0.5,1.2-1.2,2.2-2,3c-0.8,0.8-1.9,1.5-3.1,2
	c-0.6,0.2-1.4,0.4-2.3,0.5c-0.9,0.1-1.7,0.2-2.4,0.3l-0.5,0.1c0.1,0.1,0.2,0.1,0.2,0.2c0.4,0.5,0.6,1.1,0.6,1.8
	c0,0.9-0.3,1.6-0.9,2.1c-0.1,0.1-0.2,0.2-0.3,0.2h1.1h0.5c2.2,0,4.2-0.4,6.1-1.1c1.8-0.7,3.4-1.7,4.8-3c1.3-1.3,2.4-2.8,3.1-4.5
	c0.7-1.7,1.1-3.6,1.1-5.6v-0.1C85.8,44.5,85.5,42.6,84.7,40.9z M108.4,32.4v11.8h-7.3h-1.5c0.3,0.5,0.5,1,0.5,1.5
	c0,0.6-0.1,1.2-0.3,1.6c-0.2,0.4-0.5,0.8-0.8,1.1c-0.1,0.1-0.3,0.3-0.5,0.4h2.8h7v12h5v-1.9V34.3v-1.9H108.4z M94.6,50.1
	c-0.7,0-1.4-0.2-2-0.4c-1.1-0.5-1.9-1.1-2.3-1.9c-0.1-0.3-0.3-0.5-0.4-0.8v13.8h4.9v-8.5v-2.2C94.7,50.1,94.7,50.1,94.6,50.1z
	 M46.6,45.6c0,0.7-0.1,1.2-0.3,1.7c-0.2,0.4-0.5,0.8-0.8,1.1c-0.1,0.1-0.2,0.2-0.3,0.3l9.1,0v-4.4h-8.2
	C46.4,44.7,46.6,45.1,46.6,45.6z M41.3,52.3v-2.2c-0.1,0-0.1,0-0.2,0c-0.7,0-1.4-0.2-2-0.4c-0.6-0.2-1-0.5-1.4-0.8
	c-0.3-0.3-0.6-0.6-0.9-1c-0.2-0.3-0.3-0.5-0.5-0.8v13.8h7.2h10.7v-4.5h-13V52.3z M25.9,32.4l-8.5,21.8l-3.7-9.5
	c-0.1,0-0.1,0.1-0.2,0.1c-0.6,0.2-1.2,0.3-1.9,0.3c-0.1,0-0.3,0-0.4,0c-0.6,0-1.1-0.1-1.6-0.3c-0.5-0.2-0.9-0.4-1.2-0.6
	c-0.1-0.1-0.2-0.2-0.3-0.2l7,17h4.4l11.8-28.5H25.9z"/>
<g>
</g>
<g>
</g>
<g>
</g>
<g>
</g>
<g>
</g>
<g>
</g>
</svg>
